<svg xmlns="http://www.w3.org/2000/svg" viewBox="0 0 540.3 583.26"><defs><style>.cls-1{fill:#fff;}.cls-2{fill:#111;}.cls-3{fill:#2169b7;}.cls-4{fill:#f9a7e0;}.cls-5{fill:#fdc18b;}.cls-6{fill:#e98240;}.cls-7{fill:#e98340;}.cls-8{fill:#e9823f;}.cls-9{fill:#ea833f;}.cls-10{fill:#e9813e;}</style></defs><g id="Capa_2" data-name="Capa 2"><g id="Capa_3" data-name="Capa 3"><path class="cls-1" d="M483.7,311.93a130.24,130.24,0,0,0,.73-22.85,47.68,47.68,0,0,1,.08-8.94c-.2-3.1-.27-6.22-.64-9.3-2.55-22.1-7.7-43.55-17-63.82C442,152.81,401.28,115.43,345.7,94.19a212.23,212.23,0,0,0-63.11-13.28,234.17,234.17,0,0,0-36,.67A145.69,145.69,0,0,0,224.26,85c-48.7,11-89.2,35.69-121,74.15C79.69,187.58,65,220.29,58.68,256.72c.53,1.21.12,2.4-.07,3.6a225.75,225.75,0,0,0-.47,65.61c.74,5.48,2.34,10.81,2.54,16.36a162.2,162.2,0,0,0,9.58,31.59c25,60.24,68.4,101.32,129.59,123.64a193.8,193.8,0,0,0,56.08,11.2c9.39-.15,18.79-.16,28.19-.23l.28,0,.24,0a239.89,239.89,0,0,0,35.64-5.25c4.39-1,8.56-3,13.14-3.22a160.41,160.41,0,0,0,20.22-7.32Q432,458.28,467.44,380.4a196.54,196.54,0,0,0,16.41-62.19A16.81,16.81,0,0,1,483.7,311.93Zm-14.45,10.3a185.25,185.25,0,0,1-20.56,65.09Q409.9,459.23,332.5,485.67A175.22,175.22,0,0,1,285,494.82a18.14,18.14,0,0,0-2.58.52,290.6,290.6,0,0,1-37.2-1.26c-6.91-1.53-13.95-2.33-20.86-3.94A201.65,201.65,0,0,1,141.57,449c-24.87-20.35-43.35-45.55-56.16-75a10,10,0,0,0-.64-1.09c-4.42-11.7-8.51-23.48-11.19-35.73-1-4.56-1-9.33-2.89-13.68a.19.19,0,0,0,.06.07c-.49-6.85-1.15-13.7-1.4-20.55a225.36,225.36,0,0,1,3.4-48.16c2.52-9.92,4.68-19.94,8.41-29.53,23.9-61.48,67.48-102,130.05-122.39,6.58-2.15,13.41-3.56,20.12-5.31a18.13,18.13,0,0,0,2.33-.17A195.11,195.11,0,0,1,267,94.15c9-.16,17.9,1.09,26.85,1.47,7.92,1.52,15.94,2.52,23.75,4.62,77.26,20.84,127.26,69.24,148.09,146.91A157.29,157.29,0,0,1,470.63,280a24.92,24.92,0,0,0,.5,2.93l0,23.79C470.52,311.9,469.91,317.06,469.25,322.23Z"/><path class="cls-1" d="M161.34,61c-.54-12.58-1-24.47-1.61-36.35-.17-3.23,1-5.14,3.83-6.6,10.47-5.4,9.08-4.59,14,3.58,8,13.39,15.83,26.92,23.68,40.42,2.63,4.53,2.26,5.4-2.6,7.22-7.55,2.84-7.56,2.85-11.47-4.46-4.83-9-9.64-18.11-15-27,.19,4.8.4,9.59.55,14.39q.38,11.69.69,23.35a5.44,5.44,0,0,1-3,5.5,4.64,4.64,0,0,1-5.77-.49c-9.23-7.52-17.69-15.92-26.7-23.68-.31-.27-.63-.52-1.55-1.26,2.84,7.56,5.41,14.45,8,21.32,1.45,3.82,2.84,7.67,4.51,11.39,1.28,2.85.35,4.35-2.33,5.33-1.45.53-2.85,1.2-4.27,1.82-3.23,1.42-4.57.88-5.81-2.52q-8.44-23-16.82-46c-.26-.72-.46-1.47-.72-2.2-1.56-4.5-1.09-4.88,3-7.2,5.57-3.17,9.76-2.81,14.57,2,7.14,7.13,15.18,13.36,22.84,20C159.84,59.86,160.37,60.23,161.34,61Z"/><path class="cls-1" d="M319.27,41.49c1.64-10.19,3.42-20.18,4.8-30.23.79-5.7,1.09-6.18,6.76-4.91.86.19,1.71.48,2.58.59,3.41.46,3.88,2.45,3.34,5.49-2.22,12.56-4.26,25.15-6.4,37.73-.77,4.6-1.62,9.18-2.42,13.77-.32,1.8-1.31,2.57-3.22,2.6-7.36.12-9.15-1-12.22-7.73q-7.41-16.27-14.87-32.54c-.21-.46-.45-.9-.95-1.91-1.84,10.76-3.62,20.85-5.27,31-.87,5.26-1.43,5.74-6.67,4.74-6.48-1.25-6.46-1.25-5.45-7.72Q283.12,28,286.92,3.65c.37-2.33,1.35-3.73,4-3.22a8.43,8.43,0,0,0,1.67.09c4.84.07,7.91,1.86,10,6.82,4.45,10.71,9.77,21.06,14.78,31.53C317.73,39.72,317.88,40.8,319.27,41.49Z"/><path class="cls-1" d="M119.67,89.75A31.28,31.28,0,0,0,91.3,69.14c-15.43-1.41-32.24,14.56-33,30.57C57.6,114,68.87,127,79,131.15a25.46,25.46,0,0,0,21.5-.54,37.2,37.2,0,0,0,11.81-8.51C120.86,112.74,124.3,102.08,119.67,89.75ZM90.1,120c-9.35-.29-19.19-11.25-18.91-21.06.26-9.14,9.43-17.28,19.12-17,9.09.29,19.22,11.52,18.83,20.88S99.7,120.27,90.1,120Z"/><path class="cls-1" d="M421.44,43.42c-7.16-5.22-15.1-9.24-22.47-14.14-1.82-1.21-2.9-.36-3.79,1.11q-13.94,23.19-27.84,46.39c-1.16,1.92-1.11,3.36,1.12,4.62,6.36,3.6,12.54,7.5,18.94,11A32.44,32.44,0,0,0,402,96.61a55.89,55.89,0,0,0,5.64-.44c10.73-1.89,17.2-9.1,22-18.15C436.15,65.63,432.8,51.68,421.44,43.42ZM417.32,73.5c-4.42,8.76-12.85,12.75-21.39,10.17-4.94-1.48-9.09-4.43-13.47-7q9.15-15.37,18.26-30.73c.62-1.06,1.1-1.69,2.42-.83,3.14,2.06,6.49,3.81,9.53,6C420.09,56.49,421.73,64.76,417.32,73.5Z"/><path class="cls-1" d="M527.92,149.76c-3.22-7.13-8.34-13.08-12.18-19.83-2-3.5-2.81-3.56-6.33-1.42q-21.2,12.86-42.4,25.69c-3.6,2.18-4,3.69-1.63,7.17,4.19,6.15,8.25,12.4,12.73,18.34,5.36,7.13,12.45,11.56,18.67,12C521.81,192.46,537,169.8,527.92,149.76Zm-9.07,11c-.23,7.83-6.46,15-14.77,17.64-6.62,2.09-13.33-.18-17.81-6.29-2.15-3-3.85-6.22-5.93-9.22-1-1.38-.33-1.84.73-2.47,9.12-5.46,18.23-11,27.38-16.39.7-.42,1.58-1.68,2.48-.21,3,4.89,6.7,9.42,7.86,15.24A7.57,7.57,0,0,1,518.85,160.8Z"/><path class="cls-1" d="M261.57,24.94c1,7.13,2.45,14.27.47,21.43-2.83,10.26-11.81,17.05-22.93,17.43-4.33.14-8.66.14-12.83-1.41C216.61,58.8,212.43,51.06,211,41.58c-1.57-10.51-2.59-21.1-4-31.64-.37-2.78.54-4.19,3.25-4.7a43.14,43.14,0,0,1,6.52-1.13c2.73-.1,3.63,1.15,3.89,3.75C221.72,18.44,223,29,224.1,39.58c.64,6.19,3.31,10.77,9.63,12.46,5.32,1.41,11.17-1.27,15.1-6.7,2-3,1.71-6.32,1.38-9.6C249.16,25.37,247.92,15,247,4.66c-.23-2.52.4-3.8,3.14-3.82,1.87,0,3.75-.33,5.63-.42s3.21.77,3.41,2.81c.74,7.23,1.33,14.47,2,21.7a.69.69,0,0,0,.1.19Z"/><path class="cls-1" d="M539.78,392.74c-3.21-15.11-22.42-24.29-36.82-20.6-11.37,2.92-19,14-19.41,26.92a50.42,50.42,0,0,0,.77,5.92c3.36,13.81,19,22.15,31.4,21.4C533.26,425.29,542.69,406.42,539.78,392.74Zm-11.07,11.09c-2.07,6.18-7.34,10-15.36,10a24.23,24.23,0,0,1-17-9.61c-3.59-4.85-2-10.14,1-14.9a12.47,12.47,0,0,1,13.37-5.94,31.8,31.8,0,0,1,12.55,5.76C528.61,393.07,530.56,398.29,528.71,403.83Z"/><path class="cls-1" d="M94,497.68c6.47-7.1,12.48-13.64,18.44-20.22,3.17-3.51,3.64-3.57,7.19-.36,4.92,4.44,5,4.48.42,9.29-9.85,10.45-19.77,20.84-29.62,31.3-1.73,1.84-3,1.6-5.14.32-5.56-3.41-4.82-8.2-3.83-13.41,1.85-9.68,3.43-19.41,5.11-29.12a10.6,10.6,0,0,0,0-1.7C79.73,480.9,73,487.94,66.18,495c-3.37,3.48-3.38,3.47-6.87.36-.75-.66-1.52-1.3-2.27-2-1.61-1.46-1.74-3-.22-4.6q16.51-17.49,33-35c1.31-1.39,2.53-1.36,4.12-.43,4.89,2.88,5.39,3.82,4.94,8.22C97.68,473.37,95.76,485.08,94,497.68Z"/><path class="cls-1" d="M479.05,87.33c-5.7-5-5.68-5-12.33-1.85-5.9,2.81-11.83,5.52-17.74,8.29q-14.53,6.81-29.06,13.64c-3.26,1.54-3.59,3.22-1.26,5.83,4.55,5.07,6.59,5.5,12.72,2.63a18,18,0,0,0,2.68-1.32c1.48-1,2.5-1,3.93.38,4.92,4.67,10,9.15,15.12,13.61,1.19,1.05,1.56,1.83.69,3.35-1.26,2.19-2.08,4.63-3.29,6.86a3.91,3.91,0,0,0,.59,4.86,28,28,0,0,0,6.31,5.38c2.06,1.32,3.2.83,3.92-1.48s1.71-4.75,2.58-7.12c5.86-14.95,11.68-29.92,17.61-44.85C482.93,92,482.3,89.34,479.05,87.33ZM460.15,118c-.76,2-1.42,1.4-2.48.49-3.79-3.25-7.58-6.49-11.75-10,7.41-3.66,14.6-7.2,22.54-11.14C465.45,104.73,462.67,111.3,460.15,118Z"/><path class="cls-1" d="M408.44,491.23c-16,.15-28.8,11.42-28.56,25.13.28,15.92,13.57,31.28,26.44,30.83,15.28-.55,28.4-12,28.29-25.67C434.48,505.19,422.3,491.1,408.44,491.23Zm5.5,43.63c-5.8,2.56-10.35,1.79-14.57-2.52-4.78-4.89-8.3-10.48-7.92-17.63.51-9.41,13-16.09,20.91-10.94,6.53,4.26,10.28,10.55,10.72,17C423.14,528.77,419.37,532.46,413.94,534.86Z"/><path class="cls-1" d="M380.91,548c-1.38-6.17-5.1-10.19-11.9-11.21a11.45,11.45,0,0,0,2.62-4.16c1.63-5.08-.21-9.37-3.25-13.26-3.49-4.46-8.31-5.37-13.53-4.21-6.9,1.53-13.35,4.52-20.06,6.72-2.22.73-2.59,2.32-1.94,4.22,5,14.71,10.17,29.4,15.22,44.12.69,2,1.69,2.62,3.74,1.73,1.61-.71,3.39-1,5.05-1.59,5.68-2.08,11.65-3.46,16.83-6.77C379.5,559.83,382.27,554.08,380.91,548Zm-30.68-8.57c-.84.37-1.13-.23-1.35-.95-1-3-2-6.08-3-9.1-.24-.69-.5-1.35.38-1.63,3-1,5.9-2.49,8.94-2.83,3.14.16,4.72,1.85,5.79,4.44s.33,4.58-1.65,6.21C356.7,537.71,353.25,538.07,350.23,539.39Zm17.6,16.33c-2.92,2.82-6.94,3.23-10.54,4.55-.88.32-1.18-.42-1.42-1-.37-.92-.67-1.87-.95-2.82-.81-2.7-1.59-5.41-2.39-8.12,3.69-1.48,7.35-3,11.32-3.51a4.77,4.77,0,0,1,5.06,3.53C369.9,551,370,553.6,367.83,555.72Z"/><path class="cls-1" d="M78.53,152.1c-.53,15.79-13.69,30.51-29,31.94-9.22.86-17.1-3.08-23.72-9.37-18.32-17.43-9.06-42.88,9-50.74,4.82-2.09,6.06-1.44,6.84,3.66.9,5.83.87,5.78-3.86,8.71-13.67,8.49-11.94,23.09,1.52,31.55,13.82,8.69,25.61-2.75,26.18-13.5,0-.89.13-1.78.23-2.66.21-1.89-1-4.35,1.31-5.44a16,16,0,0,1,9.78-1.12c1.11.2,1.62,1.41,1.65,2.63C78.44,149.31,78.49,150.87,78.53,152.1Z"/><path class="cls-1" d="M57.14,401.72c-.44,4.76-3.55,6.59-8.2,5.43-1.83-.46-2.36-1.8-2.39-3.48,0-2.55-.1-5.09-.16-7.64-.92-2.81-1.45-5.76-3.2-8.25-1.42-2-3.28-3.73-5.79-3.11-2.74.68-2.85,3.29-2.91,5.71-.14,5.25,1.58,10.29,1.52,15.55-.06,6.84-2.46,12.22-8.78,15.13-6.47,3-12.63,1.66-18-2.78-8.13-6.71-11.59-21.52-7.46-31.14A5.93,5.93,0,0,1,2.39,386c1.24-1.69,1.93-4.36,4.93-3.17,3.51,1.4,5.35,4.53,4.44,7.38-1.58,5-.94,9.86.94,14.6a9.69,9.69,0,0,0,2,3c1.75,1.82,3.72,3.19,6.49,2.16s3.21-3.7,3.08-6c-.2-3.86-1-7.68-1.6-11.52a22,22,0,0,1,.77-10.84c3.54-9.75,16-12.44,24.6-5.27,1.5,1.25,3.15,2.45,3.87,4.43C56.54,387,57.82,394.19,57.14,401.72Z"/><path class="cls-1" d="M74.82,428.12C74,427,73,425.91,72,424.82a2.89,2.89,0,0,0-2.68-1A8.33,8.33,0,0,0,68,424q-25.14,6.63-50.27,13.25c-2.26.6-2.42,2-1.69,3.78,2.39,5.84,5.16,7.24,11.16,5.62A37.93,37.93,0,0,0,32.27,445c1.77-.77,2.79-.37,3.8,1.26,1.93,3.1,4.08,6.08,6.16,9.09,1.33,1.9,3.78,3.79,3.75,5.65s-2.51,3.72-3.87,5.62c-3.79,5.27-3.75,5.76.65,10.7l.24.25c2.83,3.12,3.27,3.13,5.61-.29Q61.89,458,75.12,438.61C78.59,433.53,78.59,433.21,74.82,428.12ZM52.24,453.25l-8.71-11.47c6.81-2.06,13.25-4,20.31-6.13C59.76,441.82,56.07,447.43,52.24,453.25Z"/><path class="cls-1" d="M278.67,532.16c6.58,8.42,13.14,16.87,19.79,25.24.54.68.59,2.54,2.34,1.57.78-6.1-.31-12.13-.64-18.18-.15-2.88-.35-5.76-.72-8.61-.27-2.1.72-3.11,2.77-3.23.67,0,1.33,0,2-.05,4.1,0,4.42.07,4.68,4.17.63,9.83,1.63,19.63,2.11,29.46,0,.45-.16.73-.09.32,0-.25.41-.47.61-.72a130.93,130.93,0,0,1,1.3,15.58,1.94,1.94,0,0,1-.71,1.76c-2.45,1.88-9.38,1-11.27-1.4q-9.7-12.52-19.42-25c-.6-.76-1-1.74-2.09-2-.75,3.62-.42,7.27-.19,10.9.34,5.32,1.11,10.6,1.14,15.94,0,4,0,4-3.95,4.23-.78.05-1.53.33-2.31.31-2.32.22-2.89-1.38-3-3.13-.69-9.76-1.21-19.52-2.07-29.26-.41-4.65-.64-9.31-1-14-.29-4,.3-4.56,4.31-4.79C274.48,531.1,276.7,530.67,278.67,532.16Z"/><path class="cls-1" d="M425,479.44c-.23-4.44,1.6-8.6,4.63-12.1,4.71-5.46,11-8.42,17.89-10.08,2.63-.62,4,.4,4.39,3,.09.66.29,1.3.42,1.95.86,4.24-.1,5.81-4.37,6.4a17.56,17.56,0,0,0-10.16,5.11c-2,2-3.37,4.43-1.62,7.11,1.62,2.49,4.11,2.88,7.07,2.08,5.05-1.36,9.49-4.16,14.41-5.81,5.67-1.89,11-1.67,15.57,2.47,4.77,4.3,6.33,9.67,4.82,16-1.92,8-7.25,13-14.17,16.64a38.53,38.53,0,0,1-9.74,3.21c-3,.67-5-.22-5.58-3.48-.18-1.1-.52-2.16-.68-3.26-.51-3.44.55-4.57,4.08-4.63,5.35-.08,10-1.74,13.32-6.21,1.74-2.36,2.52-5.13.8-7.75s-4.62-2.23-7.28-1.68c-5.11,1.07-9.67,3.69-14.59,5.32C433,497.48,424.89,491.63,425,479.44Z"/><path class="cls-1" d="M164.06,550c-.16-3.2.85-6.16,1.8-9.12,2.73-8.51,5.64-17,8.22-25.53.76-2.53,1.89-3.3,4.29-2.55.31.1.66.09,1,.18,6.66,1.86,7.11,2.66,5,9.19-2.62,8-5.37,15.88-7.95,23.86-2.89,8.91,2.07,15.43,11.38,15,4.61-.24,7.23-3.26,8.61-7.24,2.37-6.88,4.45-13.86,6.64-20.8q1.35-4.24,2.65-8.52c.61-2,1.94-2.56,3.86-2.07l.32.11c7.75,1.85,8,2.41,5.51,9.93-2.79,8.25-5.43,16.55-8.34,24.75-3.47,9.79-10.67,15.18-19.87,14.57-8.88-.58-20.32-6.4-22.55-17.12C164.26,553.05,164.22,551.49,164.06,550Z"/><path class="cls-1" d="M259.23,578.82q-5.64-23.7-11.43-47.35a4,4,0,0,0-2.74-3.1c-6.43-2.11-9.08-1.06-12.23,4.89l-.62,1.18Q222.1,553.84,212,573.27c-1.59,3.08-1.22,3.77,2.06,4.54,6.86,1.64,7.15,1.49,10.13-4.8.14-.3.24-.61.36-.92.86-2.27,1.94-3.54,4.86-2.63,2.59.81,5.48.76,8.25.94,7.84.51,7.84.48,9.66,8.08a8.87,8.87,0,0,1,.42,1.26c.13,1.89,1.25,2.74,3,3,1.43.2,2.86.35,4.28.53C260.17,583.27,260.28,583.24,259.23,578.82ZM241.36,561c-1.34-.11-3.14-.37-5.4-.58a27,27,0,0,1-5.56-1c3.59-6,5.54-12.59,9.58-18.77a96.57,96.57,0,0,1,3.69,17.61c.11,1,.2,2,.28,2.91C243.3,561.12,242.41,561.06,241.36,561Z"/><path class="cls-1" d="M513.19,456.62c-3.91,7.72-9.36,13.87-18,16.09-10.09,2.59-18.48-1.47-26-7.75a27.68,27.68,0,0,1-9.8-16.88c-1.95-10.87,7.69-27.43,18.07-30.64.56-.18,1.09-.39,1.59-.07,2.63,1.67,2.82,4.61,3.55,7.22.55,2-.54,3.36-2.29,4.3-4.34,2.32-7.77,5.4-9.16,10.39-1.25,4.49-.74,8.68,2.17,12.24a27,27,0,0,0,13.3,9c6.32,1.86,11.62-.58,16.34-7.25,2.26-2.44,2.75-5.55,2.61-8.59-.12-2.58.73-3.57,3.11-4.11,6.1-1.38,7.22-.6,7,5.47a26.79,26.79,0,0,1-1.91,8.06C513.48,454.93,512.81,455.65,513.19,456.62Z"/><path class="cls-1" d="M136.11,550.48c-8-.16-16.06-6.2-18.08-13.05-.81-2.74-.34-4.58,2.68-5.27,1.18-.26,2.37-.52,3.53-.87,2.12-.64,3.43,0,4,2.22a9.57,9.57,0,0,0,1,2.42c3,5.28,8.11,5.35,11,0,5.32-9.69,10.51-19.44,15.75-29.17.85-1.57,1.63-3.51,3.9-2.69,2.77,1,5.64,2.08,7,5.08.34.75-.27,1.45-.64,2.14-5.38,9.91-10.63,19.89-16.12,29.74C147.05,546.66,142.72,550.77,136.11,550.48Z"/><path class="cls-1" d="M372.33,21.45c-1.13,3.45-2.18,6.92-3.4,10.34-4.79,13.51-9.68,27-14.42,40.51-.92,2.6-2,3.8-4.85,2.45a17.17,17.17,0,0,0-4.44-1.28c-3.32-.58-3.76-2.45-2.76-5.31q8.55-24.51,17-49.06c.84-2.43,2-3.89,4.92-2.43a31.72,31.72,0,0,0,5.36,1.64C371.28,18.76,372.37,19.56,372.33,21.45Z"/><path class="cls-1" d="M58.68,256.72c1,1,.72,2.36.52,3.49-2.21,12.5-2.73,25.1-2.64,37.76A203.65,203.65,0,0,0,61,339.17c.23,1.08.62,2.17-.34,3.12-1.83-6.33-2.61-12.85-3.45-19.35A240.65,240.65,0,0,1,56,278,146.38,146.38,0,0,1,58.68,256.72Z"/><path class="cls-1" d="M261.57,24.94l-.26,1.92H261c-.73-7.57-1.55-15.13-2.16-22.7-.23-2.84-1.59-3.69-4.16-3.29a10.42,10.42,0,0,1-2.61.38c-5-.57-5,.78-4.59,5.23.95,10.12,2.39,20.18,3.46,30.29.32,3,.46,6.18-2.13,8.56,1.75-5.14.86-10.33.31-15.5-.92-8.72-2-17.42-2.94-26.13-.18-1.63.31-3,2.1-3.18A49.23,49.23,0,0,1,257,.06a2.47,2.47,0,0,1,2.6,2.45q.81,8.28,1.56,16.58C261.3,21,261.42,23,261.57,24.94Z"/><path class="cls-1" d="M311.52,562.13l-.35,2.88-.29,0c-.51-6.71-.82-13.44-1.59-20.13-.5-4.4-.22-8.86-1.19-13.21-.89-4-3.94-1.54-6-2s-2.22,1.23-2.11,2.77c.56,8.29,1.42,16.56,1.57,24.89,0,.85.35,1.52-.81,1.67-.39-9-.91-17.94-2-26.87-.26-2.19.56-3.4,2.79-3.57,1.33-.1,2.66-.15,4-.29,2.63-.28,3.58,1.15,3.74,3.5Q310.41,546.93,311.52,562.13Z"/><path class="cls-1" d="M278.67,532.16c-2.39-.71-4.85-.54-7.29-.58-2,0-2.82.77-2.81,2.76,0,9.08,1.14,18.07,1.82,27.1.4,5.29.55,10.6.93,15.89.13,1.84-.38,4.26,2.65,4.47a.73.73,0,0,1,0,1.15c-2.3.48-3.24-.53-3.38-2.8-.64-9.94-1.09-19.91-2.14-29.81-.52-4.94-.4-9.9-1.07-14.83-.58-4.24,0-4.47,4.26-4.69C274.07,530.7,276.8,529.15,278.67,532.16Z"/><path class="cls-1" d="M483.84,318.21c-1.13-1.49-.68-3.25-.49-4.8,1.23-10,.33-20.08.6-30.11,0-1.07-.35-2.24.56-3.16C485.6,292.85,484.94,305.54,483.84,318.21Z"/><path class="cls-1" d="M513.19,456.62c-1.28-1.82.77-3,.91-4.61s1.09-3.43,1.14-5.16c0-2,1.23-4.63-1-5.86s-4.81-.23-7.11.55c-1.63.55-1,2.24-1.14,3.52-.23,3-.07,6.21-3.06,8.23A17.31,17.31,0,0,0,505,444a3.25,3.25,0,0,1,3.09-3.87c1.63-.26,3.29-.37,4.95-.49,2.05-.16,2.94.72,3,2.88A27.58,27.58,0,0,1,513.19,456.62Z"/><path class="cls-1" d="M274,583c0-.38,0-.77,0-1.15,6.39-.22,6.87-.77,5.93-7.59a124.69,124.69,0,0,1-1.28-20.15c0-1.06-.4-2.26.71-3.08-.49,8.93,1.13,17.74,1.43,26.63.12,3.42-.26,5.43-4.22,5A11.51,11.51,0,0,0,274,583Z"/><path class="cls-1" d="M69.35,303c.25,6.85.91,13.7,1.4,20.55a.19.19,0,0,1-.06-.07h0c-1.46-1.61-.82-3.75-1.19-5.59-.69-3.34-.63-6.83-.87-10.25a216.1,216.1,0,0,1,0-26.57,189,189,0,0,1,3.43-26.6c.22-1.14.41.29.69.39A225.36,225.36,0,0,0,69.35,303Z"/><path class="cls-2" d="M441,272c5.95,46-5.75,87.39-32.15,125a4.88,4.88,0,0,1-1,.85c-4.62,7.25-10.48,13.48-16.61,19.42-23.15,22.41-50.12,37.91-81.84,44.65a164.21,164.21,0,0,1-47.11,4c-18.87-1.17-37.49-4.09-55.16-11.36a171.71,171.71,0,0,1-47.6-28.42,149.41,149.41,0,0,1-27.43-28.95,168.36,168.36,0,0,1-28-57.77,172.77,172.77,0,0,1-6-53.11c.21-5,1-9.95,1.47-14.93Q110,202.41,165.35,160a27.75,27.75,0,0,1,2.82-1.7c2.37-4.86,4.47-9.87,7.64-14.3a43.28,43.28,0,0,1,23.23-17,18.62,18.62,0,0,0,9.41-5.84c5.92-7,14.05-9.46,22.72-10.28,6.24-.59,12.14-1.54,17.75-4.77,13.05-7.5,26.46-6.91,39.73-.4a27,27,0,0,0,14.4,3.09c9.21-.75,17.05,2.56,23.72,8.59A53.63,53.63,0,0,0,344,128c15.2,5.72,24.44,17,30,31.8,4.43,2,7.78,5.51,11.3,8.66,25.68,23.06,43.66,50.9,52.1,84.61A148,148,0,0,1,441,272Z"/><path class="cls-2" d="M407.8,397.84c-4.62,7.25-10.48,13.48-16.61,19.42-23.15,22.41-50.12,37.91-81.84,44.65-3.38-.54-6.5.9-9.73,1.4a173.7,173.7,0,0,1-28.86,2.3c-20.89-.26-41.37-3.24-61.09-10.5a5.77,5.77,0,0,0-2.59-.54,171.71,171.71,0,0,1-47.6-28.42,149.41,149.41,0,0,1-27.43-28.95c-.07-1.76,1.51-2.07,2.55-2.72A227.44,227.44,0,0,1,178,373.21c4.69-1.72,9.53-3.11,13.88-5.67a2.2,2.2,0,0,0,.37-.38,2.87,2.87,0,0,0,.46-1.37c0-.12,0-.22.05-.34a38.12,38.12,0,0,1,6.43-17c1.21-1.73,1-3.18-.14-4.86a71.16,71.16,0,0,1-11.46-28.25c-.32-1.76-.85-2.82-2.87-2.89-7.81-.26-13.44-4.49-17.66-10.55-7-10-10-21.51-12.35-33.25a85.23,85.23,0,0,1-1.42-19.27c.14-5.08,1.51-9.69,5.27-13.27,1.59-1.51,1.27-2.49-.18-3.77-3.65-3.23-6.85-6.77-7-12-.13-4,2-6,5.93-5.9a8.43,8.43,0,0,0,2.3.14c.22-.16.22-.35,0-.55-6.2-5.9-7.14-10.72-3.64-18.56a28.1,28.1,0,0,1,3-5.55c3.45-4.52,4-9.75,4.4-15.12.48-5.77,1.38-11.51,4.76-16.47,2.37-4.86,4.47-9.87,7.64-14.3a43.28,43.28,0,0,1,23.23-17,18.62,18.62,0,0,0,9.41-5.84c5.92-7,14.05-9.46,22.72-10.28,6.24-.59,12.14-1.54,17.75-4.77,13.05-7.5,26.46-6.91,39.73-.4a27,27,0,0,0,14.4,3.09c9.21-.75,17.05,2.56,23.72,8.59A53.63,53.63,0,0,0,344,128c15.2,5.72,24.44,17,30,31.8,2.93,3.24,3.49,7.33,3.91,11.41a41.38,41.38,0,0,1,0,6.68,53.89,53.89,0,0,0,3.21,21.32,39.09,39.09,0,0,1,.38,25.91,23.62,23.62,0,0,1-3.61,6.75c-.78,1.05-1,1.94.31,2.8,8.22,5.48,9.18,13.74,8.3,22.53a144.3,144.3,0,0,1-6.73,32.67,40.16,40.16,0,0,1-12.27,18c-3,2.57-6.42,4.49-10.52,4.59a3.44,3.44,0,0,0-3.71,3,88.26,88.26,0,0,1-12.52,29c-.88,1.3-1.32,2.54-.38,4a47.64,47.64,0,0,1,7,17.42l.09.5a1.84,1.84,0,0,0,.45.83l.24.29c4.3,2.93,9.43,3.82,14.19,5.55,15.44,5.62,29.66,13.51,43.42,22.35C406.59,396,407.56,396.61,407.8,397.84Z"/><path class="cls-3" d="M408.8,397a4.88,4.88,0,0,1-1,.85c-13.87-9.09-28.22-17.28-43.79-23.17-5.49-2.08-11-4.07-16.53-6.09a4.58,4.58,0,0,1-.21-2.68c.09-.52.23-1,.37-1.57,5.25-19.61,13.48-37.79,26.69-53.35,11.37-13.38,24.7-24.34,41-31.45A122.18,122.18,0,0,1,437.09,272c1.26-.29,2.55-1,3.86-.09C446.9,317.91,435.2,359.34,408.8,397Z"/><path class="cls-3" d="M192.54,368.37c-8.55,3.38-17.14,6.66-25.63,10.19a204,204,0,0,0-34.86,18.64,168.36,168.36,0,0,1-28-57.77,172.77,172.77,0,0,1-6-53.11c.21-5,1-9.95,1.47-14.93,1.19-.83,2.39-.23,3.53.06a118.81,118.81,0,0,1,48.26,24.84c17.17,14.62,28.55,33.06,36.6,53.84,1.52,3.95,2.79,8,4,12a25.41,25.41,0,0,1,.83,3.28A6,6,0,0,1,192.54,368.37Z"/><path class="cls-4" d="M441,272c-42.4,9.61-70.7,35.47-86.82,75.36a142.25,142.25,0,0,0-6.32,19.92c-.11.45-.22.89-.33,1.35-1.56-1.42-1.25-3.49-1.68-5.25a41.18,41.18,0,0,0-6.79-15,2.24,2.24,0,0,1,0-3.18c6.94-9.44,11.08-20.14,13.79-31.44.26-1.09.11-2.18,1.83-2.08,8.27.53,13.33-4.68,17.95-10.38,6.14-7.58,8.23-16.85,10.18-26.08,1.78-8.36,3.31-16.8,2.85-25.42-.39-7.26-3.54-12.7-10.9-15.56,7-7.23,8.36-16.12,7.61-25.62-.37-4.69-2.08-9.06-3.5-13.47a39,39,0,0,1-2-15.42c.56-6.85.12-13.54-2.92-19.86,4.43,2,7.78,5.51,11.3,8.66,25.68,23.06,43.66,50.9,52.1,84.61A148,148,0,0,1,441,272Z"/><path class="cls-4" d="M200.61,348a37.68,37.68,0,0,0-7,17.77c-.14,1,0,2-1.08,2.64-.09-.41-.18-.81-.28-1.21a139.61,139.61,0,0,0-21.11-47.59c-14.58-21.25-34.19-35.93-58.48-44.37-4.29-1.49-8.72-2.55-13.09-3.81Q110,202.41,165.35,160a27.75,27.75,0,0,1,2.82-1.7,82.18,82.18,0,0,0-4.6,24.06,11,11,0,0,1-2.23,5.48,43.55,43.55,0,0,0-5.43,10.27c-2.2,6.62-1.07,10.64,4.24,15.1.73.62,1.45,1.27,2.45,2.15-1.72.91-3,.35-4.36,0-4.17-.92-6.46,1.1-6.05,5.39s3,7.53,6.17,10.32c1.24,1.1,2.56,2.1,3.87,3.18-5.67,3.55-7.87,8.82-8.07,15.21-.5,15.85,3.13,30.83,9.59,45.16,2.94,6.5,7.17,12,13.89,15.18a15.3,15.3,0,0,0,8,1.82c1.72-.17,2.46.17,2.74,2.19a64.47,64.47,0,0,0,12.2,30.19C201.73,345.57,201.77,346.4,200.61,348Z"/><path class="cls-5" d="M376.93,254.93a112.85,112.85,0,0,1-5.36,30.75,34.17,34.17,0,0,1-9.13,14.53c-4.3,4-6.59,4.1-11.39.73-2.39-1.67-2.95-1.37-3.55,1.65-2.56,12.83-6.24,25.33-14.14,35.93-11,14.76-26.08,23.48-44,27.51-22.86,5.15-44.44,2-64.35-10.48-16.79-10.49-26.35-26-30-45.3-.52-2.72-1-5.45-1.62-8.16-.42-1.94-1.12-2.74-3.1-1.11-4.08,3.37-6.31,3.3-10.79.5-5.62-3.53-8.52-9-10.5-15-3.26-9.79-6.18-19.68-7.18-30A20.8,20.8,0,0,1,163,246.3c1.75-4.14,5.27-5.38,9.25-3.28,4.57,2.41,7.45,6.61,10.8,10.31.57.62,1,1.68,2.08,1.36.88-.25.83-1.32.93-2,2.2-13.39,6.79-26.18,9.87-39.34,1.8-7.66,1.31-15-2.68-21.92-2.74-4.75-2.88-9.43,0-14.19a19.3,19.3,0,0,0,2-5.59c2.24-9.88,12.68-18.73,23.08-20a38.28,38.28,0,0,1,14.89.78c1.15.31,2.71.67,2.83,2,.13,1.55-1.49,2-2.64,2.55-.2.11-.46.11-.62.24-1.13.91-3.71-.22-3.63,2,.07,1.77,2,2.58,3.48,3.29,7.89,3.79,16,3,24.1.89a22.35,22.35,0,0,0,6.5-2.46c2.9-1.86,5.29-1.32,7.89.4,4.39,2.9,9.37,4,14.53,4.31,3.38.2,6.51,1.37,9.72,2.23,4.74,1.29,8.4-.93,12-3.42,1.13-.78,1-1.58-.28-2.21a6.85,6.85,0,0,1-1.64-1.13c-2.75-2.44-2.56-3.54.73-4.74a6,6,0,0,0,2.41-1.06c3.47-3.8,7.68-3.08,12.08-2.41,13.56,2.05,25.47,12.52,28.43,25.32.89,3.85,1.14,7.85-.59,11.47-4.86,10.12-4.62,20.42-1.58,30.88a226.91,226.91,0,0,1,6.52,31.94c.1.74-.15,1.74.83,2s1.32-.68,1.85-1.22c2.79-2.88,5.47-5.87,8.38-8.62,2.15-2,4.76-3.63,7.84-2.44,3.34,1.29,4.08,4.49,4.5,7.62A38,38,0,0,1,376.93,254.93Z"/><path class="cls-1" d="M306.67,369.57c-23,9-46.16,9.22-69.48,1.37,1.07-1.17,2.08-.11,3,.16a117.64,117.64,0,0,0,23.4,4.11A104.29,104.29,0,0,0,298,371.7c1.7-.46,3.3-1.3,5-1.71C304.17,369.71,305.31,368.39,306.67,369.57Z"/><path class="cls-6" d="M272.27,300.27a29.27,29.27,0,0,1-18.74-5.87c-4.76-3.45-6.25-7.09-4.56-12.63,2.75-9,6.81-17.63,9.19-26.8a101.75,101.75,0,0,0,2.07-10.77c.2-1.38.52-3.23,2.32-3.22s2,1.84,2.2,3.26c1.1,7-.44,13.69-2.77,20.22-1.84,5.12-4.48,9.93-5.68,15.3-1.1,4.94,0,7.64,4.48,9.8,8,3.86,16.21,4.61,24.48.94,5.19-2.31,6.77-5.69,5.86-11.33-.3-1.85-1.72-4.56.65-5.29s3.74,1.88,4.75,3.91c3,6,.84,12.5-5.71,16.95A30.12,30.12,0,0,1,272.27,300.27Z"/><path class="cls-2" d="M233.56,217.3c6.1.29,12.18.82,17.86,3.37a17.52,17.52,0,0,1,6.11,4.52c1.71,1.95,1.54,4.06.46,6.18-1.23,2.42-3.29,1.9-5.2,1.18a55.47,55.47,0,0,0-12.45-3.42c-9.89-1.28-18.7,1-26.5,7.19-1.68,1.34-3.53,3.68-5.76,2.14s-.48-4.14.1-6.12c2.63-9,9.31-13.11,18.07-14.4C228.65,217.58,231.07,217,233.56,217.3Z"/><path class="cls-2" d="M308.53,217.21c5.57.43,11.06,1.07,16,4,5.49,3.28,8,8.42,8.94,14.48.14.93.4,2.11-.69,2.72a2.86,2.86,0,0,1-3.14-.28c-1.11-.74-2.24-1.45-3.29-2.27-10.56-8.27-22.1-8.79-34.27-4.39-.21.07-.39.23-.59.31-2.67,1.13-5.8,2.88-7.75-.36s1.34-5.29,3.44-7C293.33,219.36,300.75,217.7,308.53,217.21Z"/><path class="cls-2" d="M272.6,324.3c-11.07-.23-21.93-1.5-32-6.68a19.22,19.22,0,0,1-4.52-2.78c-.93-.86-1.61-1.85-1.09-3.22.6-1.57,1.94-1.81,3.29-1.61a14.94,14.94,0,0,1,3.79,1.15c20.29,8.9,40.47,8.59,60.59-.59,1.44-.66,3.05-2,4.6-.41,1.92,1.94,1,3.64-.86,5-5.62,4.24-12.12,6.37-18.91,7.74A63.37,63.37,0,0,1,272.6,324.3Z"/><path class="cls-2" d="M314.83,245.55c-.26,8.16-2.95,11.9-8,11.85s-8-3.85-8.27-11c-1-.08-1.15.9-1.76,1.28-1,.66-1.92,2.28-3.36,1s-.88-2.8-.15-4.27c4.23-8.49,15.05-10.8,22.72-4.79a15.9,15.9,0,0,1,4.81,5.46c.67,1.35,1.25,2.76-.26,3.89s-2.48-.09-3.46-.95C316.43,247.41,315.89,246.71,314.83,245.55Z"/><path class="cls-2" d="M242.84,246.16c0,7-2.92,11.13-7.67,11.23-5.15.12-7.95-3.71-8.11-11.16-1.29.32-1.78,1.58-2.76,2.23s-1.86,1.43-3,.56a2.61,2.61,0,0,1-.66-3.06,9.23,9.23,0,0,1,1-2.1,15.42,15.42,0,0,1,26-.91,5.08,5.08,0,0,1,.51.87c.59,1.5,1.91,3.15.37,4.59-1.72,1.62-3-.35-4.31-1.11A12.36,12.36,0,0,1,242.84,246.16Z"/><path class="cls-7" d="M174.21,271.62a12.44,12.44,0,0,1,.66-4.28c.5-1.32,1.09-2.51,2.65-2.64a3.05,3.05,0,0,1,3.07,2.21c2.09,6,4.06,12,3.73,18.48-.08,1.63-.72,3.26-2.36,3.72S179.6,288,178.84,287C175.45,282.45,174.66,277.08,174.21,271.62Z"/><path class="cls-8" d="M319.42,311.07c-.42,1.9-.86,4.3-1.51,6.64-.27,1-.56,2.53-2,2.32-1.65-.25-1.24-1.9-1.25-3a31.46,31.46,0,0,0-1.9-11.76c-1.14-2.85-3-5.15-4.84-7.54-.93-1.25-2.08-2.75-.8-4.2,1.41-1.6,3-.64,4.45.39C317.27,298,318.74,304.08,319.42,311.07Z"/><path class="cls-9" d="M364.43,273a24.4,24.4,0,0,1-4.1,13.86c-.71,1.08-1.6,2.4-3.19,1.9-1.38-.44-1.32-1.95-1.48-3.1-.31-2.36.39-4.63.88-6.9.74-3.46,1.52-6.92,2.42-10.35.35-1.33.6-3.24,2.37-3.15,1.51.07,2.31,1.73,2.66,3.12A30.64,30.64,0,0,1,364.43,273Z"/><path class="cls-10" d="M223.76,311.3c0-7.08,2.75-12.26,6.87-16.83,1-1.13,2.57-2.56,4-1.33s.42,3.17-.66,4.43c-5.13,6-6.34,12.94-5,20.55.23,1.27,1,3.32-.66,3.82-1.27.37-1.84-1.61-2.47-2.75A16.52,16.52,0,0,1,223.76,311.3Z"/><path class="cls-1" d="M284,375.36a111.6,111.6,0,0,0-7.32,15,114.4,114.4,0,0,0-4.54,14,2,2,0,0,1-3.92,0,112.43,112.43,0,0,0-11.85-29.05l13.81,1.25Z"/></g></g></svg>