<svg xmlns="http://www.w3.org/2000/svg" viewBox="0 0 1159.99 1343.48"><defs><style>.cls-1{fill:#ac8b3b;}.cls-2{fill:#c19b40;}.cls-3{fill:#b6892d;}.cls-4{fill:#571622;}.cls-5{fill:#c49a3e;}.cls-6{fill:#ac9251;}.cls-7{fill:#a68a43;}.cls-8{fill:#ca9933;}.cls-9{fill:#bd994a;}</style></defs><g id="Capa_2" data-name="Capa 2"><g id="Capa_1-2" data-name="Capa 1"><path class="cls-1" d="M849.89,1190.48l-46,27.66c-18.4,10.34-33,27.35-55,31.43l-148.74,86c-6.1,3.52-11.53,8.7-19.41,7.84a10.15,10.15,0,0,1-1.76-11c9.16-8.4,16.63-18,20.43-30,37.6-25.75,77.3-48.07,116.61-71,105.72-61.69,211.72-122.93,316.77-185.76q95.28-57,94.54-168.31c-.4-60.57,0-121.15-.21-181.71,0-8,2.82-17.49-7.4-22.3-7.73-3.39-16.31,10.12-23.61-1.15,12.65-28.21,26.24-31.09,48-8.71-2.89-14.41,3.34-27.61-.76-42.73-18.72,11.42-38.38,8.93-57.66,8.59-20.27-.35-29.86-7.3-31.58-27-2.61-29.85-8.84-59.41-9.14-89.35-.8-80.08,3.56-160.12,5-240.07,1-55,9.67-112-8.54-166.66,6-11.13,16.85-4.11,25.15-6.82a16.55,16.55,0,0,1,3.6,6c2.91,10.92,2,22.06,2,33.11q.1,216.06.06,432.13c0,7.17,0,14.33.44,21.5.55,8.66,5,12.94,13.54,13.38,4.56.23,9.11.39,13.68.34,23.6-.25,26.07-2.22,26.1-25.51q.29-260.05,0-520.13c0-22.88-2.13-24.46-28.94-24.47q-246.36-.13-492.72,0c-7.82,0-15.64.09-23.45-.5-116.65,1.21-233.3.24-350,.51-54.09.13-108.18,0-162.27,0-32.73,0-32.81.06-32.81,32.06q-.06,254.19-.11,508.38c0,11.58,1.93,23.59-4.5,34.41q-3.07,3.32-6.66.51c-6.13-7.84-5.3-17.2-5.31-26.2q-.18-266.3.12-532.58c0-13.12-2.48-28.8,17.09-32,9.06-1.83,18.18-.31,27.27-.32q243.15-.15,486.29-.15c7-1.18,14.45.72,21.21-2.64C577.24,7.61,585,3.63,597,3.65q273.93.61,547.86.32c4.47,0,9.14-.92,13.29,1.76.57,7.07,1.64,14.15,1.65,21.22q.16,417.92.24,835.83c0,27.47-4.59,54.34-8.24,81.37-2,33.54-22,58-41.5,82.75-13.71,24.25-37.6,38.12-59.93,50.8-55.52,31.51-110.23,64.38-165.52,96.25C873.6,1180.4,862.66,1187.37,849.89,1190.48Z"/><path class="cls-2" d="M553.52,25.24l-516.21,0c-9.65-9.5-15.59-7.09-18.74,5.62-2.7,10.9-2.44,22-2.44,33q0,246.3.05,492.61c0,31.93-1.31,63.84-.58,95.76a49.44,49.44,0,0,1,.2,10.53c-.17,78-1.61,156,1.49,234,.94,23.63,4.41,47.77,15.09,69.79-14.07-35.46-15.3-73-16.13-110.23-1.12-50.73-.23-101.5-.32-152.25,0-11.78.88-23.38,4.27-34.7,8.43-18.73,13.85-20.79,30.6-10.43,15.87,9.82,34.54,16,44.57,33.69,4.16,7.37,9.85,14.05,6.47,23.39-9,5.79-12-2.29-15.36-7.4-5.31-8-10.38-15.88-20.73-17.9C55.09,688,48.27,677.66,37.47,675c-4.79,6.88-2.77,13.56-2.78,19.81-.17,61.19.05,122.38-.14,183.56-.23,74.1,31.43,129.68,95.09,167.73,136.84,81.8,275.49,160.5,412.55,241.92,5.92,3.52,11.44,9.09,19.45,6.42-2.5-37.63-1.61-75.2-1.59-112.75,0-8.33-1.44-17,4-24.56,10.39-2.84,11.86,5.62,13.2,11.81,1.68,7.78,5.7,14.46,8,21.88,2.74,41.55.32,83.15,1.46,124.71a23,23,0,0,1-5.74,16.2c-.07,3.88-.15,7.76-.22,11.63-35.42-13.52-66.16-35.62-98.7-54.33-80.6-46.36-159.88-95.07-241.15-140.21-43.42-24.11-85.55-50.12-128.17-75.44C36.58,1028.14,2.26,960.24,2.17,873.56Q1.74,466,1.94,58.47c0-1.31-.08-2.62.05-3.91C3.7,38-5.78,16.74,6,5.8,17.55-4.83,38.53,2.41,55.27,2.39Q597.66,1.93,1140,2.17c6,0,13.14-2.95,18.08,3.56Q895.46,5.81,632.82,6c-21.58,0-46.69-8.6-59.7,19.15"/><path class="cls-3" d="M573.85,874c1.85-215.55.16-431,.87-646.53.12-38.38-1.69-76.8,1.23-115.17.78-3.94,2.19-7.56,5.25-10.35,7.69-4.82,16.35-3.77,24.74-3.78q205.27-.15,410.57,0c8.89,0,18.48-1.94,25.93,5.48,16.81,9.57,8.27,27.24,12.4,40.8,6.45,21.22.33,43.33-.69,65.05-1.41,30.25,4.58,60,.86,90.83-7.72,63.84-3.75,128.37-5,192.61-.73,36.51,8.83,71.88,8.88,108.28,0,13.28,7,24.81,24.87,22.84,11.57-1.27,23.39-.25,35.1-.26,5.87,0,11.86.38,15.87-5.26,2.9-4.06,4.78-10.7,11.31-8.45,6.81,2.34,5.94,9.26,6,15.09,0,13.32-7.2,26.36-.79,40.08,1.61,3.45-2.39,7.24-5.66,9.45-4.2,2.84-5.25-1.09-7-3.7-16.61-25.37-17.59-25.44-36.87-2.68-1.66,2-3,4.22-4.45,6.34,1,4-1.41,6.16-4.12,8.24-21.79,12.61-29.76,31.31-30.13,56.57-.84,56.21-3.76,112.43-16,167.65-14.9,34.08-45.65,51.53-74.75,70.58-4.37,2.87-10.57,3-14.38-1.43-4.44-5.2.09-9.83,3.22-13.59,16.58-19.92,24-42.56,21.4-68.42-3.33-21.61-9.62-24.46-27.89-13.6-41.39,24.62-84,47.29-124.9,72.58-23.58,14.56-45.56,32.36-70.85,43.63-42.3,18.86-78.19,45.77-112,76.94-27.64,25.52-46.72,55.05-48.32,92.53-1.53,35.74-7.15,71.33-4.77,107.23.51,7.67-1.3,15.82,4.61,22.39,1.83,2.38,3.18,4.91,2.36,8.06.6,14.36-4.91,24.37-19.78,27.7l-.08-144.68c-5.71-12.82-5.25-26.61-5.76-40.12-1.49-39-2.55-81.43-2.55-119.18Z"/><path class="cls-4" d="M600.79,1304.05l-3.61-3.87c-4.3-4-4.44-9.18-3.69-14.45,4-28.44,3.43-57.25,2.52-85.61-1.93-60,24.65-104.44,68-142.22,31.72-27.68,69.45-45.47,105-66.83,60-36,120.24-71.68,181-106.5,7.85-4.5,15-10.62,25-8.27,14.59,22.09,7.63,63.31-14.47,87.53-13.93,15.25-32.31,23.9-49.63,34.08-14,8.24-28.29,16-41.7,25.24-7.44,5.1-13.43,11.46-17.36,22.93,50.9-33.62,104.6-57.14,152.62-90.48,27.34-19,46.57-42.87,50.87-76.9,8.8-39.65,6.81-80.11,5.88-119.94-1.09-46.62,21-73.79,60.6-91.4,6.72-1.16,11.47-.23,11.31,8.42-1.42,79.4,4.65,159-3.57,238.19-7,67.62-49.19,110.9-105.29,143.59Q820.18,1176.48,616.4,1295.94C611.34,1298.89,606,1301.36,600.79,1304.05Z"/><path class="cls-5" d="M10,655.15q0-301.75-.1-603.52a124.53,124.53,0,0,1,3.56-28.82c2-8.66,7.12-12.64,14.87-12.2,8.7.5,9,7.89,9,14.65C23.92,24.51,25.49,34,25.5,42.46q0,60.48,0,121,0,224.36.1,448.69c-.56.68-1.12,1.36-1.66,2-7.65,6.41-3.93,15.38-5.33,23.21C17.42,644,21.18,653.3,10,655.15Z"/><path class="cls-5" d="M29.83,611.91l65.91-.26c4.31-6.6,2.15-14,2.15-20.95.15-153.13.45-306.26-.22-459.39-.11-25.12,7-33.83,31.7-30,21.24,3.26,42.67-3.43,64.13-3.44q179.83-.06,359.67,0c9.69,0,19.64-.91,27.93,5.88l-.2,7.72c-6.22,4.87-13.53,3.86-20.64,3.69-139.32-3.37-278.66-.68-418-1.35-23.12-.11-23.85,1.48-26.19,23.62-1.92,18.18-2.26,36.36-2.25,54.6.05,98.34-.13,196.67.11,295,.08,35.15-1,70.3,1.21,105.46,1.4,22.53-14.84,38.87-37.08,38.35-11.72-.27-23.43.09-35.12-.22-11.15-.3-21.15-3.33-17.4-18.45l.05,0Z"/><path class="cls-6" d="M581.1,103.72c-17.81-4.67-36-3.89-54.16-3.88-91.73,0-183.48.82-275.19-.36-42.93-.55-85.5,5.24-128.37,4.22-18.41-.44-23.77,9.58-23.71,27.37q.81,229.35.15,458.7c0,7.32,3.42,15.78-4.09,21.88q.42-162.21.8-324.43c.11-56,0-112.06.06-168.09,0-7.69-1.54-15.75,3.41-22.75l480.21-.1c6.88,2.89,14.12,1.45,21.17,1.46q220.13.14,440.24.22c6.79,0,14.3-2.89,20.46,2.73-5.15,10.18-13.53-.93-19.64,3Z"/><path class="cls-4" d="M1062.08,100.69c-7.73-.59-15.46-1.67-23.2-1.68Q821,98.88,603.05,98.86c-7.62,0-15.68,2.13-22.84-2.59q236.13-.27,472.25-.52c5,0,10.74-1,13.17,5.49A6.2,6.2,0,0,0,1062.08,100.69Z"/><path class="cls-7" d="M1121.82,667.36c-8.67,6.7-17.87,12.82-25.92,20.2-19.21,17.64-31.41,38.07-31.05,66,.5,38.76,2.94,77.67-2.32,116.35-.59,4.39-2.24,8.64-3.4,13a9.46,9.46,0,0,1-4.32-5.19c-2.53-51.22,6-102,5.94-153.22,0-20.67,16.51-34.17,32.57-45.82l3.91-3.91C1106.09,674.46,1111.85,663.83,1121.82,667.36Z"/><path class="cls-8" d="M580.92,1037.94c.1,23.24,0,46.49,0,69.73l0,79.4c-13.49-6.29-3.33-24.39-15.6-31.29-.67-.62-1.33-1.25-2-1.86-3.5-9.19-4.61-19.27-10.25-27.67-23.57-33.36-47.48-65.91-83.18-88.41-13.45-8.47-27.66-16.52-40-27A104.25,104.25,0,0,0,402.2,995c-21.51-10.68-41.58-24-62.62-35.26-44.52-23.79-86.38-52.06-131-75.46-18.77-9.84-24.68-6-29.43,14.44-3.56,15.33-3.92,28.89,8.09,41.54,6,6.36,9.29,15.64,12.32,24.14,2.66,7.46,4,16-8.11,17.35a12.17,12.17,0,0,1-5.39-2.84c-18.52-14.06-35.19-30.26-54.7-43.3-22.72-15.17-24.77-41.29-28.32-65.65-5.81-39.91-6.14-80.08-2.86-120.17.89-10.85-7.17-21.39-.27-32.06-1.9-19.65-13.65-32.45-29.6-42.19-8.21-5-17.35-8.76-24.84-14.64-10.49-8.23-16-4.81-20,6-8.61,12.1-11.87,3.41-15.47-4v-7.77c7.8-11.24,2.86-23.9,3.66-35.86.64-9.53,3.8-11.65,11.91-7.15,2.29,11.87,8,15.91,20.76,12.52,9.11-2.42,19.47-1.34,29.11-.27,23.4,2.59,37-11.87,33.11-35.67-.94-5.72-.77-11.66-.77-17.5,0-136,.17-272-.33-408.07-.06-14,6.76-27.36,1.52-42.19-2.36-6.7,6-12.29,13.89-13.15,5.15-.55,10.39-.27,15.6-.27q182.54,0,365.09-.13c25.9,0,51.69.76,77.39,4q0,371.69.2,743.38"/><path class="cls-4" d="M101.42,581.75c0,10.24,2,20.92-3.94,30.48-22.59,8.76-45.15,9.52-67.65-.32q-.37-218.77-.73-437.56c-.07-43,.1-86-.06-128.93,0-9.19,0-16.21,12.85-16.18Q311.41,30,581,30.1c-1.62,19.86,8.65,45.33-4.48,58.11-12.15,11.84-37.22,3.47-56.55,3.52-132.71.29-265.41.09-398.12.29-7.33,0-15.82-3.34-21.8,4.36"/><path class="cls-4" d="M100.34,96.67c-.81-10,7.39-9.12,13.14-10.2,8.32-1.57,16.88-.86,25.34-.86q201.2,0,402.39,0c32.52,0,32.46-.08,33.57-31.61.29-8.37-.6-17.14,6.17-23.87,7.79-.35,15.58-1,23.37-1,168.65,0,337.31.19,506-.35,16.91-.05,23.4,3.14,23.32,22.05q-1.14,268.62,0,537.26c.08,19.77-5.06,25.39-25,24.65-43.35-1.62-43.43-.45-43.4-44.53q.19-233.46.44-466.91c-8.85-5.72-18.39-1.27-27.45-1.29-152.24-.21-304.48-.59-456.72,0"/><path class="cls-4" d="M564.63,1299.59c-6.93,7.25-12.14.13-17-2.73q-194.76-113.85-389.31-228c-25.3-14.8-50.72-29-72.66-49.07-35.31-32.24-53.21-73.34-55-119.28-2.9-76.16-1.3-152.5-1.51-228.76,0-1.75,1-3.5,1.7-5.82,15.43,2,23.77,15.6,36.69,21,21.84,16.84,33.43,37.87,32.77,66.64-1,46-3.26,92.24,7.34,137.72,4.57,19.6,13.46,35.83,30.06,48.45,17.43,13.25,35.73,25.45,52,40.27v0c17.75,3.19,32,13.86,47,22.64,23,13.47,46.1,26.8,73,41.87-6.74-14.64-16.16-21-25.83-27.09-21.5-13.54-44.28-24.92-65.55-38.84C190.75,960.52,180,933,178.6,902c-1.13-25.15,9.34-31.32,30.4-18.55,28.87,17.51,58.6,33.51,87.47,51,48.37,29.27,97.63,57,146.28,85.81,40.8,24.15,77,52.7,102.32,93.85,11.25,18.32,17.84,37.57,18.15,58.84C563.83,1215.14,562.32,1257.38,564.63,1299.59Z"/><path class="cls-9" d="M564.63,1299.59c-4.45-25.86-3.44-52.11-1.64-77.85,6.27-89.46-39.32-148.06-111.19-191C370.25,982,288,934.54,206,886.49c-19.07-11.19-23.32-9.48-22.78,13,.76,32,10.56,59.92,40.84,77,23.81,13.43,47.12,27.74,70.48,41.94,12.54,7.62,21.65,17.78,22.71,37.35L189.66,980c9.42-1.72,10.4-9.08,5.94-14.33-8-9.42-8-23-19-31-7.75-5.68-3.88-53.68,4.47-58.1,12.12-6.41,24.13-.86,34.5,5.92,31.12,20.33,63.93,38,95.86,56.8,30.62,18,60.62,38,93.5,52.28,8.21,6.82,17,12.56,27.39,15.61,13,9.88,26.92,18.69,40.58,27.18,36.6,22.75,60.63,56.15,84.55,90.17.74,10.9,6.93,20.44,7.84,31.29h0c0,35,.27,70-.15,105a112.62,112.62,0,0,0,5.77,36.09C573.39,1304.52,569.49,1304.84,564.63,1299.59Z"/><path class="cls-5" d="M10,662.92c4.34,4.51,8.57,9.44,15.47,4-4.67,85.47-8.21,170.79,2,256.32C29.47,940.57,35,955.06,41.52,970c2.1,4.8,3.92,8.58-1.49,11.39C35,984,33.46,979,31.32,976.13c-13.3-18-14.94-40.1-16.89-60.7C6.46,831.45,10.8,747.12,10,662.92Z"/><path class="cls-9" d="M189.67,980c-52.76-25-90.26-61.43-92-124.13-.74-27.34-2.44-54.81-.61-82,2.25-33.71-4.73-63-29.56-86.94,11.41-.26,16.06,8.29,21.08,16.28,3.28,5.22,4.59,11.94,11.26,14.53,4.08,14.23,5.31,28.32,4.47,43.47-2.48,44.58-1.24,89.34,7.87,133.21,3.5,16.88,11.26,31.88,28.36,42C159.39,947.41,177.93,960.27,189.67,980Z"/><path class="cls-1" d="M976,878.33c-30.91,10.72-57,30.44-84.86,46.61-68,39.41-137.38,76.67-202.68,120.49-60.14,40.35-93.6,95.76-89.35,170.94,1.57,27.84,1.67,55.94-1.89,83.81-9-2.93-8.39-10.42-8.39-17.64,0-16.91-2.31-34.21.51-50.64,4.74-27.58,1.06-55.53,6.76-83.05,6.61-31.87,22.92-56.59,47.11-77.65,20-17.41,39.79-34.74,61.11-50.74,20.17-15.15,44.74-19.81,64.66-34.49,15.55-11.46,33.36-19.15,48.68-32,13.9-11.61,32-19.14,48.3-28.15,31.53-17.4,62.56-35.51,93-54.71,14.53-9.16,27.08,1,28.78,22.56C977.27,893.58,980.83,882.74,976,878.33Z"/><path class="cls-7" d="M976,878.33l11.75,15.39c3.28,31-7.22,57.16-27.56,81,34-13.64,61.6-35,82.31-65.38,5.26-9.11.76-23.71,15.47-27.51l1.2,1c-4.36,39.54-30.26,64.07-61.28,83.17-47.52,29.24-96.34,56.37-144.64,84.34-2,1.18-4.42,1.77-7.63,3-.22-17.56,9.56-27.45,22-35.11,19.33-12,38.31-24.87,58.79-34.5C969.3,963.57,985.28,920.36,976,878.33Z"/><path class="cls-1" d="M1057.93,881.86c-8.51,7.29-8.44,19.39-15.47,27.51,8.23-43.68,11-88,14.61-132.17,1.25-15.45,1-31.05,1-46.58.08-25.35,11.62-42.74,35.26-52-5.15,5.8-10.5,11.42-15.39,17.43-8.6,10.58-16.06,21.89-15.86,36.23C1062.76,782.19,1055.51,831.89,1057.93,881.86Z"/><path class="cls-2" d="M432.35,1007.14c-12.1,0-21.31-5.06-27.39-15.61C415.43,994.37,423.93,1000.68,432.35,1007.14Z"/><path class="cls-2" d="M565.32,1155.78c-3.3-10.26-11.91-19.18-7.84-31.29C563.3,1134.12,566.79,1144.33,565.32,1155.78Z"/></g></g></svg>