<svg xmlns="http://www.w3.org/2000/svg" viewBox="0 0 1413.69 967"><defs><style>.cls-1{fill:#008601;}.cls-2{fill:#079906;}.cls-3,.cls-4{fill:none;stroke:#fff;stroke-miterlimit:10;}.cls-3{stroke-width:6px;}.cls-4{stroke-width:6.92px;}.cls-5{fill:#fff;}</style></defs><g id="Capa_2" data-name="Capa 2"><g id="Capa_1-2" data-name="Capa 1"><rect class="cls-1" width="117.81" height="967"/><rect class="cls-2" x="117.81" width="117.81" height="967"/><rect class="cls-1" x="235.61" width="117.81" height="967"/><rect class="cls-2" x="353.42" width="117.81" height="967"/><rect class="cls-1" x="471.23" width="117.81" height="967"/><rect class="cls-2" x="589.04" width="117.81" height="967"/><rect class="cls-1" x="706.84" width="117.81" height="967"/><rect class="cls-2" x="824.65" width="117.81" height="967"/><rect class="cls-1" x="942.46" width="117.81" height="967"/><rect class="cls-2" x="1060.26" width="117.81" height="967"/><rect class="cls-1" x="1178.07" width="117.81" height="967"/><rect class="cls-2" x="1295.88" width="117.81" height="967"/><rect class="cls-3" x="59.22" y="40.5" width="1295.56" height="886"/><line class="cls-3" x1="706.84" y1="41" x2="706.84" y2="926"/><rect class="cls-3" x="59.22" y="248.5" width="248" height="470"/><rect class="cls-3" x="59.22" y="339" width="167.78" height="289"/><path class="cls-3" d="M307,350.5a133,133,0,0,1,0,266"/><rect class="cls-3" x="1106.78" y="248.5" width="248" height="470" transform="translate(2461.56 967) rotate(-180)"/><rect class="cls-3" x="1187" y="339" width="167.78" height="289" transform="translate(2541.78 967) rotate(-180)"/><path class="cls-3" d="M1107,350.5a133,133,0,0,0,0,266"/><circle class="cls-4" cx="707" cy="483.5" r="150.5"/><circle class="cls-5" cx="706.84" cy="483.5" r="16"/></g></g></svg>