<svg xmlns="http://www.w3.org/2000/svg" viewBox="0 0 967 1413.69"><defs><style>.cls-1{fill:#008601;}.cls-2{fill:#079906;}.cls-3,.cls-4{fill:none;stroke:#fff;stroke-miterlimit:10;}.cls-3{stroke-width:6px;}.cls-4{stroke-width:6.92px;}.cls-5{fill:#fff;}</style></defs><g id="Capa_2" data-name="Capa 2"><g id="Capa_1-2" data-name="Capa 1"><rect class="cls-1" x="424.6" y="-424.6" width="117.81" height="967" transform="translate(542.4 -424.6) rotate(90)"/><rect class="cls-2" x="424.6" y="-306.79" width="117.81" height="967" transform="translate(660.21 -306.79) rotate(90)"/><rect class="cls-1" x="424.6" y="-188.98" width="117.81" height="967" transform="translate(778.02 -188.98) rotate(90)"/><rect class="cls-2" x="424.6" y="-71.18" width="117.81" height="967" transform="translate(895.82 -71.18) rotate(90)"/><rect class="cls-1" x="424.6" y="46.63" width="117.81" height="967" transform="translate(1013.63 46.63) rotate(90)"/><rect class="cls-2" x="424.6" y="164.44" width="117.81" height="967" transform="translate(1131.44 164.44) rotate(90)"/><rect class="cls-1" x="424.6" y="282.25" width="117.81" height="967" transform="translate(1249.25 282.25) rotate(90)"/><rect class="cls-2" x="424.6" y="400.05" width="117.81" height="967" transform="translate(1367.05 400.05) rotate(90)"/><rect class="cls-1" x="424.6" y="517.86" width="117.81" height="967" transform="translate(1484.86 517.86) rotate(90)"/><rect class="cls-2" x="424.6" y="635.67" width="117.81" height="967" transform="translate(1602.67 635.67) rotate(90)"/><rect class="cls-1" x="424.6" y="753.47" width="117.81" height="967" transform="translate(1720.47 753.47) rotate(90)"/><rect class="cls-2" x="424.6" y="871.28" width="117.81" height="967" transform="translate(1838.28 871.28) rotate(90)"/><rect class="cls-3" x="-164.28" y="264" width="1295.56" height="886" transform="translate(1190.5 223.5) rotate(90)"/><line class="cls-3" x1="926" y1="706.84" x2="41" y2="706.84"/><rect class="cls-3" x="359.5" y="-51.78" width="248" height="470" transform="translate(666.72 -300.28) rotate(90)"/><rect class="cls-3" x="399.61" y="-1.39" width="167.78" height="289" transform="translate(626.61 -340.39) rotate(90)"/><path class="cls-3" d="M616.5,307a133,133,0,0,1-266,0"/><rect class="cls-3" x="359.5" y="995.78" width="248" height="470" transform="translate(-747.28 1714.28) rotate(-90)"/><rect class="cls-3" x="399.61" y="1126.39" width="167.78" height="289" transform="translate(-787.39 1754.39) rotate(-90)"/><path class="cls-3" d="M616.5,1107a133,133,0,0,0-266,0"/><circle class="cls-4" cx="483.5" cy="707" r="150.5"/><circle class="cls-5" cx="483.5" cy="706.84" r="16"/></g></g></svg>